<svg width="159" height="53" viewBox="0 0 159 53" fill="none" xmlns="http://www.w3.org/2000/svg">
<path d="M83.4316 0H89.2372V28.6302H83.4316V0Z" fill="white"/>
<path d="M51.3672 0H57.5704L65.4437 23.3813L73.1182 0H79.2816L68.7043 28.6302H61.9444L51.3672 0Z" fill="white"/>
<path d="M0 0H13.0029C16.3961 0 18.941 0.768774 20.6376 2.30632C22.3607 3.81736 23.2223 5.87184 23.2223 8.46976C23.2223 9.90127 22.8379 11.2135 22.0691 12.4064C21.3003 13.5993 20.2134 14.5934 18.8084 15.3887C19.9483 15.9189 20.8099 16.6347 21.3931 17.536C21.9763 18.4108 22.3607 19.4844 22.5463 20.7569L23.7392 28.6302H17.7746L16.8202 21.8703C16.6082 20.3592 16.131 19.2591 15.3887 18.5699C14.6465 17.8806 13.5596 17.536 12.1281 17.536H5.80556V28.6302H0V0ZM12.1678 12.9631C15.5345 12.9631 17.2179 11.5979 17.2179 8.8674C17.2179 6.13693 15.5345 4.7717 12.1678 4.7717H5.80556V12.9631H12.1678Z" fill="white"/>
<path d="M79.417 46.8047L94.9957 28.6302H79.417L79.417 23.3369L102.031 23.3369V28.6302L86.7734 46.8047H88.6529V52.0982H79.417V46.8047Z" fill="#DB1A1A"/>
<path d="M48.2006 5.20916H32.7322V11.4919H47.0474V16.4623H32.7322V23.3371L80.1082 23.3369V28.6301H26.9268V0H48.2006V5.20916Z" fill="url(#paint0_linear_212_3119)"/>
<path d="M88.6514 52.0979L88.6514 46.8047H108.569L117.284 52.0979L88.6514 52.0979Z" fill="url(#paint1_linear_212_3119)"/>
<path d="M135.261 23.4141H148.264C151.657 23.4141 154.202 24.1828 155.898 25.7204C157.621 27.2314 158.483 29.2859 158.483 31.8838C158.483 33.3153 158.099 34.6276 157.33 35.8205C156.561 37.0134 155.474 38.0075 154.069 38.8028C155.209 39.333 156.071 40.0487 156.654 40.95C157.237 41.8249 157.621 42.8985 157.807 44.1709L159 52.0442H153.035L152.081 45.2843C151.869 43.7733 151.392 42.6732 150.649 41.9839C149.907 41.2947 148.82 40.95 147.389 40.95H141.066V52.0442H135.261V23.4141ZM147.429 36.3772C150.795 36.3772 152.479 35.0119 152.479 32.2815C152.479 29.551 150.795 28.1858 147.429 28.1858H141.066V36.3772H147.429Z" fill="#DB1A1A"/>
<path d="M117.631 52.521C114.609 52.521 112.025 51.8716 109.877 50.5726C107.73 49.2471 106.1 47.4577 104.987 45.2044C103.873 42.9511 103.316 40.4593 103.316 37.7288C103.316 34.9983 103.873 32.5064 104.987 30.2531C106.1 27.9998 107.73 26.2237 109.877 24.9247C112.025 23.5993 114.609 22.9365 117.631 22.9365C120.654 22.9365 123.238 23.5993 125.385 24.9247C127.533 26.2237 129.15 27.9998 130.237 30.2531C131.35 32.4799 131.907 34.9718 131.907 37.7288C131.907 40.4858 131.35 42.9909 130.237 45.2442C129.15 47.471 127.533 49.2471 125.385 50.5726C123.238 51.8716 120.654 52.521 117.631 52.521ZM109.361 37.7288C109.361 40.5388 110.05 42.8451 111.428 44.6477C112.807 46.4504 114.875 47.3517 117.631 47.3517C120.388 47.3517 122.443 46.4504 123.795 44.6477C125.173 42.8451 125.863 40.5388 125.863 37.7288C125.863 34.9188 125.173 32.6125 123.795 30.8098C122.443 29.0072 120.388 28.1059 117.631 28.1059C114.875 28.1059 112.807 29.0072 111.428 30.8098C110.05 32.6125 109.361 34.9188 109.361 37.7288Z" fill="#DB1A1A"/>
<defs>
<linearGradient id="paint0_linear_212_3119" x1="48.4937" y1="25.9835" x2="80.1083" y2="25.9835" gradientUnits="userSpaceOnUse">
<stop stop-color="white"/>
<stop offset="1" stop-color="#DB1A1A"/>
</linearGradient>
<linearGradient id="paint1_linear_212_3119" x1="88.6514" y1="49.4513" x2="108.569" y2="49.4513" gradientUnits="userSpaceOnUse">
<stop stop-color="#DB1A1A"/>
<stop offset="1" stop-color="#DB1A1A" stop-opacity="0"/>
</linearGradient>
</defs>
</svg>
