<svg width="159" height="53" viewBox="0 0 159 53" fill="none" xmlns="http://www.w3.org/2000/svg">
<path d="M83.4316 0.110352H89.2372V28.7405H83.4316V0.110352Z" fill="black"/>
<path d="M51.3672 0.110352H57.5704L65.4437 23.4917L73.1182 0.110352H79.2816L68.7043 28.7405H61.9444L51.3672 0.110352Z" fill="black"/>
<path d="M0 0.110352H13.0029C16.3961 0.110352 18.941 0.879125 20.6376 2.41667C22.3607 3.92771 23.2223 5.98219 23.2223 8.58011C23.2223 10.0116 22.8379 11.3238 22.0691 12.5168C21.3003 13.7097 20.2134 14.7038 18.8084 15.4991C19.9483 16.0293 20.8099 16.745 21.3931 17.6463C21.9763 18.5211 22.3607 19.5948 22.5463 20.8672L23.7392 28.7405H17.7746L16.8202 21.9806C16.6082 20.4696 16.131 19.3694 15.3887 18.6802C14.6465 17.991 13.5596 17.6463 12.1281 17.6463H5.80556V28.7405H0V0.110352ZM12.1678 13.0735C15.5345 13.0735 17.2179 11.7082 17.2179 8.97776C17.2179 6.24728 15.5345 4.88205 12.1678 4.88205H5.80556V13.0735H12.1678Z" fill="black"/>
<path d="M79.417 46.9151L94.9957 28.7405H79.417L79.417 23.4473L102.031 23.4473V28.7405L86.7734 46.9151H88.6529V52.2085H79.417V46.9151Z" fill="#DB1A1A"/>
<path d="M48.2006 5.31952H32.7322V11.6023H47.0474V16.5727H32.7322V23.4474L80.1082 23.4473V28.7405H26.9268V0.110352H48.2006V5.31952Z" fill="url(#paint0_linear_211_2632)"/>
<path d="M88.6514 52.2083L88.6514 46.915H108.569L117.284 52.2083L88.6514 52.2083Z" fill="url(#paint1_linear_211_2632)"/>
<path d="M135.261 23.5244H148.264C151.657 23.5244 154.202 24.2932 155.898 25.8307C157.621 27.3418 158.483 29.3963 158.483 31.9942C158.483 33.4257 158.099 34.7379 157.33 35.9308C156.561 37.1237 155.474 38.1179 154.069 38.9131C155.209 39.4433 156.071 40.1591 156.654 41.0604C157.237 41.9352 157.621 43.0088 157.807 44.2813L159 52.1546H153.035L152.081 45.3947C151.869 43.8837 151.392 42.7835 150.649 42.0943C149.907 41.405 148.82 41.0604 147.389 41.0604H141.066V52.1546H135.261V23.5244ZM147.429 36.4875C150.795 36.4875 152.479 35.1223 152.479 32.3918C152.479 29.6613 150.795 28.2961 147.429 28.2961H141.066V36.4875H147.429Z" fill="#DB1A1A"/>
<path d="M117.631 52.6319C114.609 52.6319 112.025 51.9824 109.877 50.6834C107.73 49.358 106.1 47.5686 104.987 45.3153C103.873 43.062 103.316 40.5701 103.316 37.8396C103.316 35.1092 103.873 32.6173 104.987 30.364C106.1 28.1107 107.73 26.3345 109.877 25.0356C112.025 23.7101 114.609 23.0474 117.631 23.0474C120.654 23.0474 123.238 23.7101 125.385 25.0356C127.533 26.3345 129.15 28.1107 130.237 30.364C131.35 32.5908 131.907 35.0826 131.907 37.8396C131.907 40.5966 131.35 43.1017 130.237 45.355C129.15 47.5818 127.533 49.358 125.385 50.6834C123.238 51.9824 120.654 52.6319 117.631 52.6319ZM109.361 37.8396C109.361 40.6496 110.05 42.9559 111.428 44.7586C112.807 46.5612 114.875 47.4625 117.631 47.4625C120.388 47.4625 122.443 46.5612 123.795 44.7586C125.173 42.9559 125.863 40.6496 125.863 37.8396C125.863 35.0296 125.173 32.7233 123.795 30.9207C122.443 29.118 120.388 28.2167 117.631 28.2167C114.875 28.2167 112.807 29.118 111.428 30.9207C110.05 32.7233 109.361 35.0296 109.361 37.8396Z" fill="#DB1A1A"/>
<defs>
<linearGradient id="paint0_linear_211_2632" x1="48.4937" y1="26.0939" x2="80.1083" y2="26.0939" gradientUnits="userSpaceOnUse">
<stop/>
<stop offset="1" stop-color="#DB1A1A"/>
</linearGradient>
<linearGradient id="paint1_linear_211_2632" x1="88.6514" y1="49.5617" x2="108.569" y2="49.5617" gradientUnits="userSpaceOnUse">
<stop stop-color="#DB1A1A"/>
<stop offset="1" stop-color="#DB1A1A" stop-opacity="0"/>
</linearGradient>
</defs>
</svg>
